<svg xmlns="http://www.w3.org/2000/svg" viewBox="0 0 960 640"><path fill="#FFF" d="M437.93 458.94c-8.283 0-15.006 6.713-15.006 15 0 8.278 6.724 15.002 15.005 15.002 8.282 0 14.995-6.724 14.995-15.001 0-8.288-6.713-15.001-14.995-15.001zm0 26.783a11.772 11.772 0 01-11.783-11.782c0-6.51 5.265-11.775 11.782-11.775 6.51 0 11.78 5.265 11.78 11.775 0 6.512-5.27 11.782-11.78 11.782zm6.163-15.26a5.085 5.085 0 00-5.09-5.082h-7.228v17.123h3.213v-6.954h2.306l3.246 6.954h3.553l-3.389-7.251a5.095 5.095 0 003.39-4.79zm-5.09 1.872h-4.015v-3.747h4.015c1.032 0 1.877.84 1.877 1.876a1.878 1.878 0 01-1.877 1.871z"/><path fill="#FFF" d="M604.22 87.506H145.163v14.517c0 40.326 19.31 75.9 48.561 96.815h-48.561v14.526c0 40.313 19.31 75.881 48.561 96.802h-48.561v14.527c0 40.312 19.31 75.88 48.561 96.8h-48.561v14.534c0 64.217 48.967 116.467 109.156 116.467h103.92l76.665-129.608c39.677 53.75 102.35 85.855 169.316 85.855 116.134 0 210.617-94.482 210.617-210.612 0-116.138-94.483-210.623-210.617-210.623z"/><path fill="#010101" d="M604.22 102.023H163.88c0 56.313 42.369 101.958 94.635 101.958H424.39c2.583 0 4.683 2.1 4.683 4.689s-2.1 4.694-4.683 4.694H163.88c0 56.304 42.369 101.949 94.635 101.949h100.021c2.584 0 4.69 2.1 4.69 4.698 0 2.576-2.106 4.682-4.69 4.682H163.881c0 56.302 42.368 101.948 94.634 101.948h34.168a4.69 4.69 0 014.688 4.69 4.696 4.696 0 01-4.688 4.696H163.881c0 56.295 42.368 101.944 94.634 101.944h91.449L520.909 248.95c16.84-28.466 47.84-47.557 83.31-47.557 53.425 0 96.734 43.309 96.734 96.737 0 53.413-43.309 96.733-96.733 96.733-52.754 0-95.64-42.238-96.71-94.74L442.823 409.5c35.38 51.172 94.465 84.721 161.397 84.721 108.299 0 196.094-87.8 196.094-196.092 0-108.308-87.796-196.106-196.094-196.106z"/><path fill="#FA4616" d="M604.22 242.475c-30.737 0-55.645 24.915-55.645 55.654 0 30.725 24.908 55.643 55.645 55.643 30.74 0 55.652-24.918 55.652-55.643 0-30.739-24.912-55.654-55.652-55.654z"/></svg>